HIERARCHY
ROOT HipCenter
{
    OFFSET 0.0 0.0 -0.0
    CHANNELS 6 Xposition Yposition Zposition Zrotation Xrotation Yrotation
    JOINT Spine
    {
        OFFSET 0.0 10.538084030151367 0.0
        CHANNELS 3 Zrotation Xrotation Yrotation
        JOINT ShoulderCenter
        {
            OFFSET 0.0 31.03716468811035 0.0
            CHANNELS 3 Zrotation Xrotation Yrotation
            JOINT LeftShoulder
            {
                OFFSET 19.379974365234375 0.0 0.0
                CHANNELS 3 Zrotation Xrotation Yrotation
                JOINT LeftElbow
                {
                    OFFSET 26.164424896240234 0.0 0.0
                    CHANNELS 3 Zrotation Xrotation Yrotation
                    JOINT LeftWrist
                    {
                        OFFSET 30.866483688354492 0.0 0.0
                        CHANNELS 3 Zrotation Xrotation Yrotation
                        JOINT LeftHand
                        {
                            OFFSET 3.1271591186523438 0.0 0.0
                            CHANNELS 3 Zrotation Xrotation Yrotation
                            End Site
                            {
                                OFFSET 1.2508635520935059 0.0 0.0
                            }
                        }
                    }
                }
            }
            JOINT RightShoulder
            {
                OFFSET -19.379974365234375 0.0 0.0
                CHANNELS 3 Zrotation Xrotation Yrotation
                JOINT RightElbow
                {
                    OFFSET -26.164424896240234 0.0 0.0
                    CHANNELS 3 Zrotation Xrotation Yrotation
                    JOINT RightWrist
                    {
                        OFFSET -30.866483688354492 0.0 0.0
                        CHANNELS 3 Zrotation Xrotation Yrotation
                        JOINT RightHand
                        {
                            OFFSET -3.1271591186523438 0.0 0.0
                            CHANNELS 3 Zrotation Xrotation Yrotation
                            End Site
                            {
                                OFFSET -1.2508635520935059 0.0 0.0
                            }
                        }
                    }
                }
            }
            End Site
            {
                OFFSET 0.0 12.414865493774414 0.0
            }
        }
    }
    JOINT LeftHip
    {
        OFFSET 14.162246704101562 0.0 0.0
        CHANNELS 3 Zrotation Xrotation Yrotation
        JOINT LeftKnee
        {
            OFFSET 0.0 -41.68049621582031 0.0
            CHANNELS 3 Zrotation Xrotation Yrotation
            JOINT LeftAnkle
            {
                OFFSET 0.0 -43.671024322509766 0.0
                CHANNELS 3 Zrotation Xrotation Yrotation
                JOINT LeftFoot
                {
                    OFFSET 0.0 -11.314250946044922 0.0
                    CHANNELS 3 Zrotation Xrotation Yrotation
                    End Site
                    {
                        OFFSET 0.0 0.0 4.525700569152832
                    }
                }
            }
        }
    }
    JOINT RightHip
    {
        OFFSET -14.162246704101562 0.0 0.0
        CHANNELS 3 Zrotation Xrotation Yrotation
        JOINT RightKnee
        {
            OFFSET 0.0 -41.68049621582031 0.0
            CHANNELS 3 Zrotation Xrotation Yrotation
            JOINT RightAnkle
            {
                OFFSET 0.0 -43.671024322509766 0.0
                CHANNELS 3 Zrotation Xrotation Yrotation
                JOINT RightFoot
                {
                    OFFSET 0.0 -11.314250946044922 0.0
                    CHANNELS 3 Zrotation Xrotation Yrotation
                    End Site
                    {
                        OFFSET 0.0 0.0 4.525700569152832
                    }
                }
            }
        }
    }
}
MOTION
Frames: 4
Frame Time: 0.03333333333333333
-4.0 6.099999904632568 24.100000381469727 1.7534060611618754 21.185020157671534 0.5808759608716498 -0.8810979809869254 16.913017838476907 -0.35615442568010675 1.1929999197082686e-08 -2.881796776243593e-06 6.048156300084775 174.75159787680101 39.448878993821936 -160.11354411734052 -1.1564224278956155e-07 -7.184722399808621e-08 119.79827021879223 -3.210776634579505e-06 -56.7839661041269 12.487537444207618 3.1805546814635164e-15 6.361109362927033e-15 -1.7655625192200634e-31 -176.05455604326394 35.839012399680676 174.95486782021317 6.251213318270234e-07 -4.519668394839699e-07 -134.00249937210387 179.99998019243273 85.41348156348671 127.74113433186972 -6.3611093629270335e-15 -8.827812596100317e-32 1.5902773407317584e-15 4.869068702801619 -29.517167972301458 -10.168740474975618 -4.1521463916114225 21.281224406114838 -24.766315152990995 83.30637464276833 -41.1197930526828 142.2962372497846 0.0 0.0 1.590277340731758e-15 -22.796851804168703 -17.39314682432302 34.72757551509539 0.06978938273484828 0.16880116421790914 0.35279866233945584 -63.867721087627 -45.04300982472743 -138.13712554533018 0.0 0.0 1.5902773407317584e-15
-4.0 6.0 24.299999237060547 1.7357058970458557 20.98992071719836 0.5943721995351208 -0.8680440251654518 16.849839800218874 -0.3532785611037134 1.905470878821699e-07 1.913534413585051e-08 6.196764061137714 174.6156393714567 40.553373668241534 -159.84852759837426 1.630339694976353e-07 4.247258504656365e-07 119.15347153431523 1.995471951987065e-07 -56.9840967454 11.20168166217042 0.0 0.0 3.1805546814635164e-15 -176.2543368841579 37.21951393779287 175.23323019366086 2.872274550646748e-07 9.218872053664156e-07 -133.37141150512406 -179.99998444039605 85.07781043570874 129.37586344288238 -6.361109362927033e-15 8.827812596100317e-32 -1.5902773407317582e-15 4.695391458188878 -29.171831154670596 -11.23039530408697 -4.249720954012242 21.400847570914337 -24.43116490333263 83.69375618154423 -40.5214343553629 142.4801890619022 -3.180554681463516e-15 -6.361109362927032e-15 -3.180554681463516e-15 -22.799071576725673 -17.480373426643176 34.81876923498971 0.07814235827551036 0.17753617199701532 0.3656703167512031 -64.16594317264214 -44.90503222854472 -138.17572238945294 3.1805546814635164e-15 1.5902773407317582e-15 1.5902773407317582e-15
-4.0 6.0 24.600000381469727 1.7357057825671138 19.97466436803761 0.6382729943694099 -1.0478838818357274 17.612102681324814 -0.311813490780021 7.74683857921557e-08 2.846342420619984e-06 6.250472055133155 174.55342802445185 41.500977658478014 -160.07951658310634 -7.440800056474056e-08 -4.7512327153001894e-08 119.0163974614953 -4.914761667330442e-06 -57.40701837359134 11.94864627651777 3.1805546814635168e-15 0.0 0.0 -175.92519398258034 38.30130641412535 175.42021780676137 -4.751295002940049e-07 1.5484211112637746e-07 -132.87951847610765 179.99993643011567 86.56403739105542 128.44576416473114 -2.2069531490250793e-31 -6.361109362927035e-15 -3.975693351829397e-15 4.787663034952065 -27.884679073654166 -11.908436691249959 -4.548778256329252 21.05538786252319 -24.152042009557608 84.40509900796242 -40.126211232939106 143.5917543857661 3.531125038440127e-31 -1.2722218725854067e-14 3.1805546814635168e-15 -22.680524351120066 -16.527108606755903 35.1868081907028 -0.10074571134471617 -0.012155406074395185 -0.02523715508124624 -63.64410888020656 -45.17310899380144 -137.69184385714377 3.1805546814635164e-15 1.5902773407317582e-15 1.5902773407317582e-15
-4.0 6.0 24.69999885559082 1.7357056754083944 19.97466377563253 0.3304383742947247 -1.1379725085005241 17.977241270853373 -0.2557839959316289 -2.6467208182153457e-08 9.741896100295154e-07 6.8679773724983155 173.58093228986942 43.07517880185738 -159.6248186523033 -1.1671804255127769e-07 4.508047821796246e-08 119.54150394890229 5.417913873233196e-06 -60.565289018895925 10.524007984079496 -3.1805546814635176e-15 -8.827812596100317e-32 3.1805546814635176e-15 -176.43314218246022 40.21945052504146 176.2100774245629 1.0472842202820186e-06 2.411773189120719e-07 -133.076006481288 -179.99999579188867 85.62968909122678 130.1721414396526 1.4345195468663017e-31 -6.3611093629270335e-15 2.5842006786891076e-15 4.949870447599611 -27.85854715712874 -12.251266451210455 -4.882197525548173 21.247131381367158 -24.048403462676863 84.57391744912223 -39.371813882306775 143.80168499636622 3.1805546814635168e-15 -1.5902773407317584e-15 4.4139062980501586e-32 -22.587553245479032 -16.925434917227154 35.002086114258326 0.05554638325313051 0.04257951051093846 0.08839885679663809 -63.95410464654562 -45.413589831531475 -137.88973904734 3.1805546814635168e-15 -6.3611093629270335e-15 1.5902773407317584e-15
